<?xml version="1.0" encoding="UTF-8"?>
<!DOCTYPE svg PUBLIC "-//W3C//DTD SVG 1.1//EN" "http://www.w3.org/Graphics/SVG/1.1/DTD/svg11.dtd">
<!-- Creator: CorelDRAW -->
<svg xmlns="http://www.w3.org/2000/svg" xml:space="preserve" width="25mm" height="25mm" version="1.1" style="shape-rendering:geometricPrecision; text-rendering:geometricPrecision; image-rendering:optimizeQuality; fill-rule:evenodd; clip-rule:evenodd"
viewBox="0 0 2500 2500"
 xmlns:xlink="http://www.w3.org/1999/xlink"
 xmlns:xodm="http://www.corel.com/coreldraw/odm/2003">
 <defs>
  <style type="text/css">
   <![CDATA[
    .str0 {stroke:#373435;stroke-width:20;stroke-miterlimit:22.9256}
    .fil0 {fill:#373435}
    .fil1 {fill:white}
   ]]>
  </style>
 </defs>
 <g id="Layer_x0020_1">
  <metadata id="CorelCorpID_0Corel-Layer"/>
  <g id="_2447346662688">
   <ellipse class="fil0 str0" cx="1235.2" cy="1384.93" rx="1070.92" ry="1118.14"/>
   <path id="github-mark-white.svg" class="fil1" d="M1247.95 3.07c-691.78,0 -1251.02,561.12 -1251.02,1255.3 0,554.9 358.32,1024.6 855.41,1190.85 62.14,12.5 84.91,-27.01 84.91,-60.24 0,-29.1 -2.05,-128.85 -2.05,-232.79 -348,74.83 -420.47,-149.64 -420.47,-149.64 -55.93,-145.48 -138.79,-182.88 -138.79,-182.88 -113.9,-76.89 8.3,-76.89 8.3,-76.89 126.35,8.31 192.64,128.85 192.64,128.85 111.83,191.19 292.03,137.17 364.52,103.91 10.34,-81.05 43.5,-137.17 78.71,-168.34 -277.55,-29.1 -569.58,-137.17 -569.58,-619.35 0,-137.17 49.68,-249.4 128.39,-336.67 -12.41,-31.17 -55.93,-160.06 12.45,-332.54 0,0 105.63,-33.26 343.8,128.85 101.94,-27.38 207.23,-41.57 312.81,-41.57 105.62,0 213.3,14.56 312.74,41.57 238.2,-162.11 343.83,-128.85 343.83,-128.85 68.37,172.49 24.84,301.37 12.42,332.54 80.79,87.27 128.42,199.5 128.42,336.67 0,482.17 -292.02,588.15 -571.66,619.35 45.59,39.48 84.92,114.29 84.92,232.76 0,168.34 -2.05,303.44 -2.05,344.99 0,33.26 22.79,72.77 84.91,60.3 497.09,-166.3 855.41,-635.98 855.41,-1190.88 2.01,-694.18 -559.27,-1255.3 -1248.97,-1255.3z"/>
  </g>
 </g>
</svg>
