<?xml version="1.0" encoding="UTF-8"?>
<!DOCTYPE svg PUBLIC "-//W3C//DTD SVG 1.1//EN" "http://www.w3.org/Graphics/SVG/1.1/DTD/svg11.dtd">
<!-- Creator: CorelDRAW -->
<svg xmlns="http://www.w3.org/2000/svg" xml:space="preserve" width="210mm" height="297mm" version="1.1" style="shape-rendering:geometricPrecision; text-rendering:geometricPrecision; image-rendering:optimizeQuality; fill-rule:evenodd; clip-rule:evenodd"
viewBox="0 0 21000 29700"
 xmlns:xlink="http://www.w3.org/1999/xlink"
 xmlns:xodm="http://www.corel.com/coreldraw/odm/2003">
 <defs>
  <style type="text/css">
   <![CDATA[
    .str0 {stroke:#373435;stroke-width:20;stroke-miterlimit:22.9256}
    .fil0 {fill:#373435}
    .fil1 {fill:white}
   ]]>
  </style>
 </defs>
 <g id="Layer_x0020_1">
  <metadata id="CorelCorpID_0Corel-Layer"/>
  <g id="_2447346662688">
   <ellipse class="fil0 str0" cx="10480.75" cy="14987.32" rx="1106.52" ry="1159.91"/>
   <path id="github-mark-white.svg" class="fil1" d="M10493.92 13553.83c-714.77,0 -1292.6,582.08 -1292.6,1302.2 0,575.63 370.23,1062.88 883.84,1235.34 64.21,12.96 87.74,-28.02 87.74,-62.49 0,-30.19 -2.12,-133.67 -2.12,-241.49 -359.57,77.63 -434.45,-155.23 -434.45,-155.23 -57.79,-150.92 -143.4,-189.71 -143.4,-189.71 -117.69,-79.77 8.57,-79.77 8.57,-79.77 130.55,8.63 199.05,133.67 199.05,133.67 115.54,198.33 301.73,142.29 376.63,107.79 10.69,-84.08 44.95,-142.29 81.33,-174.63 -286.78,-30.19 -588.51,-142.29 -588.51,-642.49 0,-142.29 51.33,-258.71 132.66,-349.25 -12.83,-32.33 -57.79,-166.03 12.86,-344.96 0,0 109.14,-34.5 355.23,133.67 105.33,-28.41 214.12,-43.13 323.2,-43.13 109.14,0 220.4,15.11 323.14,43.13 246.12,-168.17 355.26,-133.67 355.26,-133.67 70.64,178.94 25.66,312.63 12.83,344.96 83.48,90.54 132.69,206.96 132.69,349.25 0,500.19 -301.73,610.13 -590.66,642.49 47.1,40.96 87.74,118.56 87.74,241.46 0,174.63 -2.12,314.77 -2.12,357.88 0,34.5 23.55,75.49 87.74,62.55 513.61,-172.51 883.84,-659.74 883.84,-1235.37 2.08,-720.12 -577.86,-1302.2 -1290.49,-1302.2z"/>
  </g>
 </g>
</svg>
